<svg xmlns="http://www.w3.org/2000/svg" width="16" height="18" viewBox="0 0 16 18">
  <path fill="currentColor" d="M1.114 5.83c.303 0 .563.109.78.325.215.216.324.476.324.779v4.651c0 .31-.107.574-.32.79a1.058 1.058 0 0 1-.784.324c-.31 0-.573-.108-.79-.324a1.074 1.074 0 0 1-.324-.79V6.934c0-.303.108-.563.324-.78.217-.215.48-.324.79-.324zm8.957-4.175c.771.397 1.388.95 1.85 1.66.461.711.692 1.488.692 2.332H2.607c0-.844.231-1.62.693-2.331a4.743 4.743 0 0 1 1.86-1.661L4.392.238c-.05-.094-.033-.165.054-.216.094-.044.166-.022.216.065l.78 1.428a5.317 5.317 0 0 1 2.174-.455c.764 0 1.489.152 2.174.455l.779-1.428c.05-.087.122-.109.216-.065.086.05.104.122.054.216l-.768 1.417zm-4.44 2.06a.407.407 0 0 0 .124-.297.407.407 0 0 0-.125-.297.407.407 0 0 0-.297-.124.389.389 0 0 0-.292.124.416.416 0 0 0-.12.297c0 .116.04.215.12.298.08.083.176.124.292.124a.406.406 0 0 0 .297-.124zm4.559 0a.415.415 0 0 0 .119-.297.416.416 0 0 0-.12-.297.389.389 0 0 0-.291-.124.406.406 0 0 0-.298.124.406.406 0 0 0-.124.297c0 .116.041.215.124.298a.405.405 0 0 0 .298.124.388.388 0 0 0 .292-.124zM2.65 13.24V6.036h9.93v7.204c0 .332-.115.613-.346.844-.231.23-.509.346-.833.346h-.811v2.456c0 .31-.109.573-.325.79-.216.216-.48.324-.79.324-.31 0-.573-.108-.79-.324a1.075 1.075 0 0 1-.324-.79V14.43H6.87v2.456c0 .31-.108.573-.325.79-.216.216-.48.324-.79.324-.302 0-.562-.108-.778-.324a1.075 1.075 0 0 1-.325-.79l-.01-2.456H3.84c-.332 0-.613-.115-.844-.346a1.148 1.148 0 0 1-.346-.844zm11.467-7.41c.31 0 .573.107.79.32.216.212.324.474.324.784v4.651c0 .31-.108.574-.325.79-.216.216-.48.324-.79.324-.302 0-.562-.108-.778-.324a1.074 1.074 0 0 1-.325-.79V6.934c0-.31.108-.572.325-.784.216-.213.476-.32.779-.32z"/>
</svg>
