<svg xmlns="http://www.w3.org/2000/svg" width="23" height="12" viewBox="0 0 23 12">
  <path fill="currentColor" d="M2.244 1.088c0 .328-.108.594-.323.798-.215.204-.493.306-.833.306-.307 0-.564-.104-.773-.314A1.067 1.067 0 0 1 0 1.088C0 .77.108.51.323.306.538.101.805 0 1.121 0c.318 0 .584.101.799.306.216.204.324.465.324.782zM2.04 11.813H.204v-8.26h1.835v8.26h.001zm12.237-5.847c0 1.734-.442 3.15-1.326 4.25C12 11.405 10.68 12 8.991 12c-1.597 0-2.866-.583-3.806-1.75-.874-1.077-1.31-2.437-1.31-4.08 0-1.677.453-3.076 1.36-4.198C6.21.772 7.512.17 9.144.17c1.609 0 2.883.578 3.824 1.734.873 1.065 1.309 2.42 1.309 4.062zm-1.955.068c0-1.133-.254-2.108-.764-2.924-.59-.974-1.417-1.462-2.482-1.462-1.099 0-1.943.5-2.532 1.496-.499.816-.749 1.808-.749 2.975 0 1.145.255 2.125.765 2.94.6.975 1.433 1.462 2.498 1.462 1.1 0 1.944-.5 2.532-1.496.489-.816.732-1.812.732-2.991zM22.758 8.6c0 .975-.34 1.768-1.02 2.379-.747.669-1.79 1.003-3.127 1.003-1.236 0-2.227-.237-2.975-.714l.424-1.529a5.11 5.11 0 0 0 2.652.714c.691 0 1.23-.156 1.615-.468.385-.312.577-.728.577-1.249 0-.465-.159-.856-.476-1.173-.317-.318-.844-.612-1.58-.884-2.006-.748-3.01-1.84-3.01-3.28 0-.941.355-1.711 1.063-2.312.708-.6 1.646-.901 2.813-.901 1.043 0 1.91.181 2.601.544l-.457 1.496c-.647-.351-1.377-.527-2.193-.527-.646 0-1.15.159-1.512.476a1.36 1.36 0 0 0-.46 1.037c0 .454.176.828.528 1.122.306.271.861.566 1.665.884.986.396 1.71.86 2.175 1.393.465.533.697 1.196.697 1.989z"/>
</svg>
