<svg xmlns="http://www.w3.org/2000/svg" width="13" height="16" viewBox="0 0 13 16">
  <path fill="currentColor" d="M7.173 1.392C8.22.007 9.677 0 9.677 0s.217 1.303-.824 2.558c-1.111 1.34-2.375 1.12-2.375 1.12s-.237-1.054.695-2.286zm-.561 3.199c.539 0 1.539-.744 2.841-.744 2.241 0 3.123 1.6 3.123 1.6s-1.724.885-1.724 3.032c0 2.422 2.148 3.256 2.148 3.256s-1.502 4.242-3.53 4.242c-.932 0-1.656-.63-2.638-.63-1 0-1.993.653-2.64.653C2.34 16 0 11.977 0 8.743 0 5.56 1.98 3.892 3.839 3.892c1.207 0 2.145.699 2.773.699z"/>
</svg>
