<svg xmlns="http://www.w3.org/2000/svg" width="20" height="16" viewBox="0 0 20 16">
  <path fill="currentColor" d="M7.479 0c.87.167 1.724.405 2.575.653.487.146.972.296 1.454.456.758.248 1.512.53 2.198.948.308.192.603.409.855.673.273.276.497.6.661.955.3.643.402 1.36.432 2.066.014.46.013.925-.07 1.38-.07.394-.193.784-.399 1.127a2.012 2.012 0 0 1-.74.734c-.293.163-.63.24-.962.233-.505.006-.996-.16-1.449-.377-.008-1.55-.001-3.1-.003-4.65-.004-.28.015-.564-.04-.84-.039-.215-.124-.431-.287-.577a.824.824 0 0 0-.39-.188.394.394 0 0 0-.385.153c-.147.189-.186.44-.192.675-.001 4.15.001 8.3-.001 12.45l-3.257-1.063V0zm-4.88 10.502c1.416-.516 2.83-1.036 4.245-1.55.003.572 0 1.143.001 1.715 0 .078.004.156-.005.233-1.12.408-2.236.823-3.354 1.234-.155.06-.314.128-.434.25-.056.057-.101.141-.07.223.038.096.133.149.222.188.245.103.513.118.774.13.292-.005.584-.027.87-.092.192-.04.378-.106.562-.177.477-.178.955-.357 1.434-.533.003.484 0 .967.001 1.451-.001.097.004.194-.005.29-.588.109-1.182.182-1.78.192a10.353 10.353 0 0 1-3.55-.55c-.375-.111-.747-.26-1.06-.505a1.232 1.232 0 0 1-.405-.521.738.738 0 0 1 .021-.56 1.06 1.06 0 0 1 .369-.416c.35-.25.738-.44 1.13-.61.338-.148.69-.263 1.034-.392zm11.388-.651c.321-.038.644-.047.967-.06 1.061.005 2.129.14 3.144.468.2.062.392.143.59.208.355.133.709.294.992.556.17.16.317.375.32.62.01.2-.079.392-.205.54-.24.276-.557.466-.875.632-.34.178-.703.292-1.059.428-2.17.8-4.339 1.601-6.508 2.404v-1.875c.003-.025-.01-.068.024-.075l4.951-1.815c.223-.086.464-.148.653-.303.078-.063.153-.163.115-.27-.04-.094-.134-.146-.221-.185-.247-.1-.516-.12-.779-.127a3.795 3.795 0 0 0-1.218.19c-1.175.424-2.349.853-3.525 1.275V10.45c.851-.307 1.74-.493 2.634-.6zm4.823 4.622a.736.736 0 0 1 .678.3c.168.22.199.539.08.791a.742.742 0 0 1-.677.436.735.735 0 0 1-.642-.382.792.792 0 0 1-.04-.681.756.756 0 0 1 .6-.464zm-.056.141a.615.615 0 0 0-.36.246.652.652 0 0 0 .165.91c.209.142.5.134.7-.02a.649.649 0 0 0-.075-1.08.607.607 0 0 0-.43-.056zm-.178.18h.402c.076 0 .16.019.213.078.054.063.058.154.043.233-.008.052-.053.082-.085.119.028.025.064.05.07.09.016.08 0 .164.025.242.015.027.031.055.032.088l-.166.001c-.038-.09-.01-.192-.033-.285-.01-.038-.047-.062-.084-.06-.09-.005-.181-.002-.271-.002-.002.116.003.232-.003.347h-.142c-.003-.284-.001-.568-.001-.851zm.145.135v.235h.243c.04 0 .087-.008.114-.043a.152.152 0 0 0 .002-.15c-.021-.035-.065-.039-.101-.041-.086-.003-.172-.001-.258-.001z"/>
</svg>
