<?xml version="1.0" encoding="UTF-8" standalone="no"?>
<!DOCTYPE svg PUBLIC "-//W3C//DTD SVG 1.1//EN" "http://www.w3.org/Graphics/SVG/1.1/DTD/svg11.dtd">
<svg width="100%" height="100%" viewBox="0 0 16 17" version="1.1" xmlns="http://www.w3.org/2000/svg" xmlns:xlink="http://www.w3.org/1999/xlink" xml:space="preserve" xmlns:serif="http://www.serif.com/" style="fill-rule:evenodd;clip-rule:evenodd;stroke-linejoin:round;stroke-miterlimit:2;">
    <g transform="matrix(1,0,0,1,-4,-4)">
        <path fill="currentColor" d="M7.4,4.1C7.6,4 8.1,4 9.7,4C11.6,4 11.7,4 11.7,4.1L11.7,12.1C11.7,19.3 11.7,20 11.6,20C11.6,20.1 11.4,20.1 9.5,20C7.7,20 7.4,20 7.2,19.9C5.5,19.5 4.3,18.3 4,16.7L4,12.3C4,8 4,7.6 4.1,7.1C4.6,5.5 5.8,4.3 7.4,4.1ZM10.4,18.7L10.4,5.3L9.1,5.3C7.7,5.3 7.5,5.3 7,5.5C6.2,5.8 5.6,6.6 5.4,7.5C5.3,7.8 5.3,16.1 5.4,16.4C5.6,17.5 6.4,18.3 7.5,18.6C7.7,18.7 7.9,18.7 9.1,18.7L10.4,18.7ZM9.5,8.6C9.6,9.3 9.2,10 8.5,10.3C8.3,10.4 8.2,10.4 8,10.4C7.7,10.4 7.7,10.4 7.4,10.3C7,10 6.8,9.8 6.7,9.4C6.6,9.2 6.5,9.2 6.5,8.9C6.5,8.4 6.7,8 7,7.7C7.2,7.5 7.4,7.4 7.7,7.4C8.5,7.2 9.4,7.7 9.5,8.6ZM13.4,4L16.6,4C18.3,4.3 19.7,5.6 20,7.3L20,12C20,16.8 20,16.6 19.8,17.2C19.3,18.7 18,19.8 16.4,20L13.4,20C13.3,20 13.3,19.2 13.3,12C13.3,7.6 13.4,4 13.4,4ZM15,12.3C14.9,12.6 14.9,13 15,13.2C15.3,14 16.1,14.5 17,14.3C17.5,14.2 17.9,13.8 18.1,13.3C18.2,13 18.2,12.6 18.1,12.2C17.9,11.7 17.5,11.3 17,11.2C16.1,11 15.2,11.5 15,12.3Z"/>
    </g>
</svg>
