<svg version="1.2" xmlns="http://www.w3.org/2000/svg" viewBox="0 0 48 48" width="48" height="48">
	<path fill="currentColor" class="s0" d="m14.81 45.68q-4.3-1.84-7.5-5.03-3.21-3.2-5.02-7.51-1.81-4.31-1.81-9.22 0-4.91 1.81-9.22 1.81-4.31 5.02-7.44 3.2-3.14 7.5-4.96 4.29-1.82 9.19-1.82 4.89 0 9.19 1.82 4.3 1.82 7.5 4.96 3.21 3.13 5.02 7.44 1.81 4.31 1.81 9.21 0 4.91-1.81 9.23-1.81 4.31-5.02 7.51-3.2 3.19-7.51 5.03-4.31 1.84-9.19 1.84-4.88 0-9.18-1.84zm9.19-1.57q2.22-2.33 3.59-5.12 1.37-2.8 2.28-6.5h-11.7q0.9 3.64 2.3 6.49 1.41 2.85 3.53 5.13zm-4.07-0.54q-1.6-2.05-2.85-4.89-1.25-2.83-2-6.19h-9.34q2.16 4.48 5.61 7.12 3.45 2.65 8.58 3.96zm8.2-0.04q4.54-0.99 8.28-3.9 3.74-2.92 5.91-7.14h-9.29q-0.9 3.35-2.15 6.17-1.26 2.82-2.75 4.87zm-23.38-14.03h9.77q-0.22-1.57-0.28-2.93-0.07-1.37-0.07-2.67 0-1.44 0.08-2.72 0.09-1.28 0.31-2.72h-9.81q-0.44 1.32-0.62 2.61-0.18 1.29-0.18 2.83 0 1.57 0.18 2.91 0.18 1.35 0.62 2.69zm12.84 0h12.86q0.26-1.74 0.34-3 0.08-1.26 0.08-2.6 0-1.27-0.08-2.49-0.08-1.21-0.35-2.95h-12.85q-0.26 1.74-0.34 2.95-0.08 1.22-0.08 2.49 0 1.34 0.08 2.6 0.08 1.26 0.34 3zm15.91 0h9.81q0.38-1.34 0.56-2.69 0.18-1.34 0.18-2.91 0-1.54-0.18-2.83-0.18-1.29-0.56-2.61h-9.75q0.14 1.97 0.22 3.18 0.08 1.22 0.08 2.26 0 1.33-0.1 2.62-0.1 1.28-0.26 2.98zm-0.51-14.03h9.33q-2.1-4.44-5.78-7.32-3.68-2.88-8.47-3.8 1.6 2.18 2.85 4.95 1.24 2.76 2.07 6.17zm-14.82 0h11.76q-0.79-3.22-2.29-6.23-1.49-3.01-3.64-5.46-1.96 1.98-3.31 4.71-1.36 2.72-2.52 6.98zm-12.43 0h9.36q0.76-3.3 1.94-6.03 1.19-2.74 2.83-5.05-4.79 0.94-8.43 3.75-3.65 2.8-5.7 7.33z"/>
</svg>