<svg xmlns="http://www.w3.org/2000/svg" height="48px" viewBox="0 -960 960 960" width="48px" fill="#e3e3e3"><path d="M200-105.35q-39.5 0-67.08-27.57-27.57-27.58-27.57-67.08 0-7.12 3.88-11.33 3.89-4.21 10.77-4.21 7.12 0 11.33 4.21t4.21 11.33q0 26.77 18.84 45.62 18.85 18.84 45.62 18.84 21.04 0 47.88-17.23 26.85-17.23 54.16-43.04 27.31-25.81 51.63-54.46 24.33-28.65 41.6-51.5 29.42-39.69 49.75-84.98 20.33-45.29 20.33-93.25v-360q0-7.12 3.88-11.33 3.89-4.21 10.77-4.21 7.12 0 11.33 4.21t4.21 11.33v360q0 47.96 19.88 93.25 19.89 45.29 50.2 84.98 16.38 22.85 40.71 51.5 24.32 28.65 51.63 54.46 27.31 25.81 54.16 43.04 26.84 17.23 47.88 17.23 27.27 0 46.31-18.84 19.04-18.85 19.04-45.62 0-7.12 3.88-11.33 3.89-4.21 10.77-4.21 7.12 0 11.33 4.21t4.21 11.33q0 39.5-27.91 67.08-27.9 27.57-67.63 27.57-34.54 0-67.19-19.52-32.66-19.51-62.62-49.4-29.96-28.23-58.15-61.75-28.19-33.52-51.5-63.06-8.92-10.73-18.71-18.5-9.79-7.77-21.83-7.77t-21.83 7.39q-9.79 7.38-18.71 18.11-22.54 29.54-50.59 63.45-28.06 33.9-58.29 62.13-30.23 29.89-62.75 49.4-32.52 19.52-67.83 19.52Zm36.92-113.15-95.69-76.35q-11.61-8.73-17.6-20.77-5.98-12.03-5.98-26.38t5.37-26.88q5.36-12.54 16.21-21.27 3.42-2.7 8.94-3.2t8.6 3.75q3.08 4.25 3.58 10.27t-3.7 9.48q-4.88 3.39-9.15 10.85-4.27 7.46-4.27 17 0 6.65 2.69 14.19 2.7 7.54 10.73 13.43l101.04 79.46q-6.07 5.84-10.34 8.9-4.27 3.06-10.43 7.52Zm101.31-105.04-137-110.08q-11.46-8.73-17.52-20.88-6.06-12.15-6.06-26.5t4.98-27.02q4.99-12.67 16.6-22.13 2.69-2.7 8.5-2.7 5.81 0 9.65 4.2 2.58 4.07 3.02 9.71.45 5.63-3.75 9.09-5.77 3.62-9.59 12.16-3.83 8.54-3.83 17.69 0 6.38 2.69 14.06 2.7 7.67 10.73 13.56l136.31 107.84q-4.92 7.23-7.44 10.81-2.52 3.58-7.29 10.19Zm60.08-136.04L261.23-570.62q-11.46-8.73-17.52-21.88-6.06-13.15-6.06-27.5 0-14.58 6.06-27.5t17.52-22.65q3.19-3.08 8.25-2.89 5.06.19 8.9 4.39 2.58 3.57 3.6 9.46 1.02 5.88-4.33 9.34-4.27 3-9.34 11.79-5.08 8.79-5.08 19.06 0 3.54 14.42 27.85l122.5 100.19V-480q0 6.69-.69 10.21-.69 3.52-1.15 10.21Zm1.84-189.27-80.92-67q-10.85-8.73-16.21-20.9-5.37-12.17-5.37-25.25 0-24.81 17.77-43.02 17.77-18.21 42.58-18.21 6.15 0 15.69.52t9.54 12.71q0 12.19-9.54 12.27-9.54.08-15.69.08-14.81 0-24.79 11.61-9.98 11.62-9.98 25.04 0 6.65 2.69 13.37 2.7 6.71 9.73 11.48l64.5 54.19v33.11Zm161.54 189.27q-.46-6.69-.71-10.21-.25-3.52-.25-10.21v-10.96l122.5-100.19q7.54-6.54 14.42-27.85 0-10.27-5.4-19.44-5.4-9.18-9.02-12.18-5.08-3.46-4.63-8.96.44-5.5 3.02-9.07 3.84-4.2 10.03-4.39 6.2-.19 9 2.89 10.58 9.73 16.58 22.77 6 13.03 6 27.38t-6.5 27.38q-6.5 13.04-17.08 21.77L561.69-459.58Zm-.96-190.8v-33.12l64.5-51.88q4.89-4.39 8.65-11.43 3.77-7.04 3.77-14.19 0-15.19-10.23-25.92-10.23-10.73-25.42-10.73-6.54 0-15.44-.08-8.91-.08-8.91-12.27t8.91-12.71q8.9-.52 15.44-.52 24.81 0 43.02 18.21 18.21 18.21 18.21 43.02 0 13.08-5.81 25.25-5.8 12.17-15.77 20.9l-80.92 65.47Zm61.92 325.84q-5.65-6.61-8.28-9.42-2.64-2.81-6.68-10.81l135.54-109.38q6.65-5.66 13.42-27.85 0-7.42-11.8-26.85-4.58-4.07-6.02-9.84-1.45-5.77 3.02-10.96 3.46-4.2 9.73-4.39 6.27-.19 9.07 2.89 10.73 8.73 16.66 21.77 5.92 13.03 5.92 27.38t-6.5 27.38q-6.5 13.04-17.08 21.77l-137 108.31Zm101.2 106.04q-6.93-3.69-10.81-6.75-3.89-3.06-9.96-9.67l101.15-79.46q6.65-5.27 13.42-27.62 0-9.04-4.21-16.56t-8.21-11.29q-5.08-3.46-5.08-9.48 0-6.02 2.7-10.32 3.46-4.2 8.98-3.7 5.52.5 9.82 3.2 9.97 8.73 15.77 21.27 5.81 12.53 5.81 26.88t-6.31 26.77q-6.3 12.42-16.27 20.38l-96.8 76.35Z"/></svg>